<svg width="25" height="24" viewBox="0 0 25 24" fill="none" xmlns="http://www.w3.org/2000/svg">
<path fill-rule="evenodd" clip-rule="evenodd" d="M11.5 19.6951C7.00005 19.1976 3.5 15.3826 3.5 10.75H5.5C5.5 14.616 8.63401 17.75 12.5 17.75C16.366 17.75 19.5 14.616 19.5 10.75H21.5C21.5 15.3826 18 19.1976 13.5 19.6951V21H15.5V23H9.5V21H11.5V19.6951Z" fill="#FCFCFC"/>
<path d="M12.501 1C9.32534 1 6.75098 3.57436 6.75098 6.75V10.75C6.75098 13.9256 9.32534 16.5 12.501 16.5C15.4224 16.5 17.835 14.3213 18.2025 11.5H14.501V10H18.251V7.5H14.501V6H18.2025C17.835 3.17873 15.4224 1 12.501 1Z" fill="#FCFCFC"/>
</svg>
