<svg width="25" height="24" viewBox="0 0 25 24" fill="none" xmlns="http://www.w3.org/2000/svg">
<path fill-rule="evenodd" clip-rule="evenodd" d="M12.2062 3.20663C12.2706 3.20524 12.3352 3.20455 12.3999 3.20455C17.2575 3.20455 21.1954 7.1424 21.1954 12C21.1954 16.8576 17.2575 20.7955 12.3999 20.7955C7.5423 20.7955 3.6044 16.8576 3.6044 12C3.6044 9.12308 4.9847 6.56881 7.1232 4.9625L5.9493 3.39971C3.3405 5.3593 1.6499 8.48236 1.6499 12C1.6499 17.9371 6.4628 22.75 12.3999 22.75C18.337 22.75 23.1499 17.9371 23.1499 12C23.1499 6.06294 18.337 1.25 12.3999 1.25C11.6649 1.25 10.9461 1.32391 10.2509 1.46502C9.9264 1.53089 9.6574 1.7566 9.536 2.06469C9.4147 2.37278 9.4577 2.72135 9.6501 2.9908L11.6047 5.72712L13.1951 4.59106L12.2062 3.20663Z" fill="#0A0A0A"/>
<path fill-rule="evenodd" clip-rule="evenodd" d="M9.84559 8.10558C10.1844 8.27497 10.3984 8.62124 10.3984 9.00001V17H8.39837V11L7.99832 11.3L6.79834 9.7L8.79838 8.2C9.1014 7.97274 9.50681 7.93619 9.84559 8.10558ZM13.3983 10V15H14.8983V10H13.3983ZM12.3983 8.00001H15.8983C16.1635 8.00001 16.4179 8.10536 16.6054 8.2929C16.793 8.48044 16.8983 8.73479 16.8983 9.00001V16C16.8983 16.5523 16.4506 17 15.8983 17H12.3983C11.846 17 11.3983 16.5523 11.3983 16V9.00001C11.3983 8.44772 11.846 8.00001 12.3983 8.00001Z" fill="#0A0A0A"/>
</svg>

