<svg width="25" height="24" viewBox="0 0 25 24" fill="none" xmlns="http://www.w3.org/2000/svg">
<path fill-rule="evenodd" clip-rule="evenodd" d="M12.7937 3.20663C12.7293 3.20524 12.6647 3.20455 12.6 3.20455C7.74239 3.20455 3.80454 7.1424 3.80454 12C3.80454 16.8576 7.74239 20.7955 12.6 20.7955C17.4576 20.7955 21.3955 16.8576 21.3955 12C21.3955 9.12308 20.0152 6.56881 17.8767 4.9625L19.0506 3.39971C21.6594 5.3593 23.35 8.48236 23.35 12C23.35 17.9371 18.5371 22.75 12.6 22.75C6.66293 22.75 1.84999 17.9371 1.84999 12C1.84999 6.06294 6.66293 1.25 12.6 1.25C13.335 1.25 14.0538 1.32391 14.749 1.46502C15.0735 1.53089 15.3425 1.7566 15.4639 2.06469C15.5852 2.37278 15.5422 2.72135 15.3498 2.9908L13.3952 5.72712L11.8048 4.59106L12.7937 3.20663Z" fill="#0A0A0A"/>
<path fill-rule="evenodd" clip-rule="evenodd" d="M10.0457 8.10558C10.3845 8.27497 10.5985 8.62124 10.5985 9.00001V17H8.59846V11L8.19841 11.3L6.99843 9.7L8.99847 8.2C9.30149 7.97274 9.7069 7.93619 10.0457 8.10558ZM13.5984 10V15H15.0984V10H13.5984ZM12.5984 8.00001H16.0984C16.3636 8.00001 16.618 8.10536 16.8055 8.2929C16.9931 8.48044 17.0984 8.73479 17.0984 9.00001V16C17.0984 16.5523 16.6507 17 16.0984 17H12.5984C12.0461 17 11.5984 16.5523 11.5984 16V9.00001C11.5984 8.44772 12.0461 8.00001 12.5984 8.00001Z" fill="#0A0A0A"/>
</svg>
